PathFileType	4	(x/y/z)	S05_SL_Cal_T01
DataRate	CameraRate	NumFrames	NumMarkers	Units	OrigDataRate	OrigDataStartFrame	OrigNumFrames
240	240	9	50	mm	240	1201	2400
Frame#	Time	Sternum			R.Acromium			L.Acromium			Top.Head			R.ASIS			L.ASIS			R.PSIS			L.PSIS			R.Great.Tro			L.Great.Tro			R.Iliac.Crest			L.Iliac.Crest			V.Sacral			R.Thigh.Upper.Post			R.Thigh.Lower.Ant			R.Thigh.Lower.Post			R.Thigh.Upper.Ant			R.Knee.Lat			R.Knee.Med			R.Shank.Upper.Post			R.Shank.Lower.Ant			R.Shank.Lower.Post			R.Shank.Upper.Ant			R.Ankle.Lat			R.Ankle.Med			R.Heel.Upper			R.Heel.Med			R.Heel.Lat			R.Toe.Lat			R.Toe.Med			R.Toe.Tip			L.Thigh.Upper.Post			L.Thigh.Lower.Ant			L.Thigh.Lower.Post			L.Thigh.Upper.Ant			L.Knee.Lat			L.Shank.Upper.Post			L.Shank.Lower.Ant			L.Shank.Lower.Post			L.Shank.Upper.Ant			L.Ankle.Lat			L.Ankle.Med			L.Heel.Upper			L.Heel.Med			L.Heel.Lat			L.Toe.Lat			L.Toe.Med			L.Toe.Tip			Cervical.Spine			Back			
		X1	Y1	Z1	X2	Y2	Z2	X3	Y3	Z3	X4	Y4	Z4	X5	Y5	Z5	X6	Y6	Z6	X7	Y7	Z7	X8	Y8	Z8	X9	Y9	Z9	X10	Y10	Z10	X11	Y11	Z11	X12	Y12	Z12	X13	Y13	Z13	X14	Y14	Z14	X15	Y15	Z15	X16	Y16	Z16	X17	Y17	Z17	X18	Y18	Z18	X19	Y19	Z19	X20	Y20	Z20	X21	Y21	Z21	X22	Y22	Z22	X23	Y23	Z23	X24	Y24	Z24	X25	Y25	Z25	X26	Y26	Z26	X27	Y27	Z27	X28	Y28	Z28	X29	Y29	Z29	X30	Y30	Z30	X31	Y31	Z31	X32	Y32	Z32	X33	Y33	Z33	X34	Y34	Z34	X35	Y35	Z35	X36	Y36	Z36	X37	Y37	Z37	X38	Y38	Z38	X39	Y39	Z39	X40	Y40	Z40	X41	Y41	Z41	X42	Y42	Z42	X43	Y43	Z43	X44	Y44	Z44	X45	Y45	Z45	X46	Y46	Z46	X47	Y47	Z47	X48	Y48	Z48	X49	Y49	Z49	X50	Y50	Z50	

1201	5	540.13	1284.6	337.73	426.52	1531.3	497.69	413.68	1545.2	158.73	412.22	1850.9	338.68	489.2	1016.5	465.49	502.85	1023.8	214.27	293.31	1050.5	370.66	299.48	1053	279.52	398.2	941.87	521.52	406.95	950.55	137.23	402.18	1106.2	500.22	415.14	1106	165.66	281.1	1014.7	335.54	427.1	718.82	528.97	469.35	638.07	481.93	402.98	632.75	512.48	489.76	724.18	498.88	386.51	537.68	494.28	381.24	513.21	364.86	298.24	303.23	511.1	360.39	236.61	512.34	295.21	226.5	500.08	362.79	314.48	520.36	347.17	125.76	504.73	349	140.26	417.14	272.59	75.278	456.58	280.73	41.817	429.62	283.25	48.913	494.54	452.12	37.33	534.32	478.76	40.392	412.34	546.11	56.947	452.72	386.46	716.13	125.66	456.52	633.16	146.89	385.68	620.87	137.39	464.41	723.67	134.97	387.2	528.46	139.53	315.52	333.66	121.05	380.79	273.3	123.45	310.99	260.95	134.26	381.16	344.19	116.5	340.27	117.09	133.26	368.4	128.25	221.4	278.5	68.757	178.5	289.12	44.038	210.96	283.51	41.58	149.86	468.19	39.533	103.84	486.1	50.371	224.01	553.07	58.96	171.74	367.02	1580.1	335.46	278.99	1296.2	331.69
1202	5.0042	540.14	1284.6	337.74	426.52	1531.3	497.69	413.68	1545.2	158.74	412.23	1850.9	338.68	489.21	1016.5	465.49	502.86	1023.8	214.27	293.32	1050.5	370.65	299.49	1053	279.52	398.21	941.87	521.52	406.96	950.55	137.24	402.19	1106.2	500.22	415.15	1106	165.67	281.11	1014.6	335.54	427.11	718.83	528.97	469.36	638.07	481.93	402.99	632.75	512.48	489.77	724.18	498.88	386.52	537.68	494.28	381.25	513.22	364.86	298.25	303.23	511.1	360.4	236.61	512.34	295.21	226.5	500.08	362.8	314.48	520.36	347.17	125.76	504.73	349	140.26	417.13	272.59	75.279	456.58	280.73	41.818	429.61	283.25	48.913	494.54	452.12	37.329	534.32	478.76	40.391	412.34	546.11	56.945	452.72	386.46	716.13	125.66	456.53	633.16	146.89	385.69	620.87	137.39	464.42	723.67	134.97	387.21	528.46	139.54	315.52	333.66	121.05	380.79	273.3	123.45	311	260.95	134.26	381.17	344.19	116.5	340.27	117.09	133.26	368.4	128.24	221.41	278.5	68.758	178.5	289.12	44.038	210.96	283.51	41.58	149.86	468.19	39.533	103.85	486.1	50.37	224.01	553.07	58.959	171.74	367.03	1580.1	335.47	279	1296.2	331.69
1203	5.0083	540.15	1284.6	337.74	426.53	1531.3	497.7	413.67	1545.2	158.75	412.25	1851	338.68	489.21	1016.5	465.49	502.87	1023.8	214.27	293.33	1050.5	370.65	299.5	1053	279.52	398.21	941.87	521.52	406.97	950.55	137.24	402.19	1106.2	500.22	415.16	1106	165.67	281.12	1014.6	335.54	427.12	718.84	528.97	469.36	638.07	481.94	403	632.75	512.48	489.78	724.18	498.89	386.53	537.68	494.28	381.26	513.22	364.86	298.25	303.23	511.09	360.4	236.61	512.34	295.22	226.5	500.08	362.81	314.48	520.36	347.17	125.76	504.73	349	140.26	417.13	272.59	75.28	456.58	280.73	41.819	429.61	283.25	48.914	494.54	452.12	37.328	534.32	478.77	40.39	412.34	546.11	56.942	452.72	386.47	716.13	125.66	456.54	633.16	146.89	385.7	620.87	137.39	464.42	723.67	134.97	387.22	528.46	139.54	315.53	333.66	121.05	380.8	273.3	123.45	311	260.95	134.26	381.17	344.19	116.5	340.27	117.09	133.26	368.39	128.24	221.41	278.5	68.759	178.5	289.12	44.039	210.96	283.51	41.581	149.86	468.19	39.533	103.85	486.1	50.37	224.01	553.07	58.958	171.74	367.03	1580.1	335.48	279.01	1296.2	331.7
1204	5.0125	540.16	1284.6	337.75	426.53	1531.3	497.71	413.66	1545.2	158.76	412.26	1851	338.68	489.22	1016.5	465.5	502.88	1023.8	214.27	293.33	1050.5	370.65	299.51	1053	279.52	398.22	941.87	521.53	406.98	950.55	137.24	402.2	1106.2	500.23	415.17	1106	165.67	281.13	1014.6	335.54	427.13	718.84	528.97	469.37	638.08	481.94	403	632.75	512.48	489.79	724.18	498.89	386.54	537.68	494.28	381.27	513.22	364.86	298.26	303.24	511.09	360.41	236.61	512.34	295.22	226.5	500.08	362.81	314.49	520.36	347.17	125.76	504.73	349.01	140.26	417.13	272.59	75.281	456.58	280.73	41.82	429.61	283.25	48.916	494.54	452.12	37.327	534.32	478.77	40.389	412.34	546.11	56.939	452.72	386.48	716.13	125.67	456.54	633.16	146.9	385.71	620.87	137.4	464.43	723.67	134.97	387.22	528.46	139.54	315.53	333.66	121.06	380.8	273.3	123.45	311	260.96	134.27	381.18	344.19	116.5	340.27	117.09	133.26	368.39	128.24	221.41	278.5	68.76	178.5	289.12	44.039	210.96	283.51	41.582	149.87	468.19	39.532	103.85	486.1	50.369	224.01	553.07	58.957	171.74	367.04	1580.1	335.49	279.02	1296.2	331.7
1205	5.0167	540.16	1284.6	337.75	426.53	1531.3	497.71	413.65	1545.2	158.77	412.28	1851	338.68	489.23	1016.5	465.5	502.89	1023.8	214.27	293.34	1050.5	370.65	299.52	1053	279.52	398.23	941.87	521.53	406.99	950.55	137.24	402.2	1106.2	500.23	415.18	1106	165.67	281.13	1014.6	335.54	427.14	718.85	528.97	469.38	638.08	481.94	403.01	632.75	512.48	489.8	724.18	498.89	386.55	537.68	494.29	381.28	513.22	364.86	298.27	303.24	511.09	360.42	236.62	512.34	295.23	226.5	500.08	362.82	314.49	520.36	347.17	125.76	504.73	349.01	140.26	417.13	272.59	75.283	456.58	280.73	41.822	429.61	283.25	48.917	494.54	452.12	37.326	534.32	478.77	40.387	412.34	546.12	56.936	452.72	386.49	716.14	125.67	456.55	633.16	146.9	385.71	620.87	137.4	464.44	723.67	134.98	387.23	528.46	139.54	315.54	333.66	121.06	380.81	273.3	123.45	311.01	260.96	134.27	381.18	344.19	116.5	340.27	117.1	133.26	368.39	128.23	221.41	278.5	68.761	178.5	289.13	44.04	210.96	283.51	41.584	149.87	468.19	39.532	103.85	486.11	50.368	224.01	553.08	58.956	171.75	367.05	1580.1	335.5	279.03	1296.2	331.7
1206	5.0208	540.17	1284.6	337.76	426.54	1531.3	497.72	413.65	1545.2	158.78	412.29	1851	338.68	489.24	1016.5	465.5	502.9	1023.8	214.28	293.35	1050.5	370.65	299.53	1053	279.52	398.24	941.86	521.53	407	950.55	137.25	402.21	1106.2	500.23	415.19	1106	165.67	281.14	1014.6	335.54	427.15	718.85	528.97	469.39	638.08	481.94	403.02	632.75	512.48	489.81	724.18	498.9	386.56	537.68	494.29	381.29	513.22	364.86	298.27	303.25	511.09	360.42	236.62	512.34	295.23	226.5	500.08	362.83	314.49	520.36	347.18	125.76	504.73	349.01	140.26	417.13	272.59	75.285	456.58	280.73	41.823	429.61	283.25	48.919	494.54	452.12	37.325	534.32	478.77	40.386	412.34	546.12	56.932	452.72	386.5	716.14	125.67	456.56	633.16	146.9	385.72	620.88	137.4	464.45	723.67	134.98	387.24	528.46	139.54	315.54	333.66	121.06	380.81	273.3	123.46	311.01	260.96	134.26	381.19	344.2	116.5	340.27	117.1	133.26	368.39	128.23	221.41	278.5	68.761	178.5	289.13	44.041	210.96	283.51	41.585	149.87	468.19	39.532	103.85	486.11	50.368	224.01	553.08	58.955	171.75	367.05	1580.1	335.5	279.04	1296.2	331.71
1207	5.025	540.18	1284.6	337.76	426.54	1531.3	497.73	413.64	1545.2	158.79	412.31	1851	338.69	489.25	1016.5	465.5	502.91	1023.8	214.28	293.36	1050.5	370.65	299.54	1053	279.52	398.24	941.86	521.53	407.01	950.55	137.25	402.21	1106.2	500.23	415.2	1106	165.67	281.15	1014.6	335.54	427.16	718.86	528.97	469.4	638.08	481.95	403.03	632.76	512.48	489.82	724.18	498.9	386.56	537.69	494.29	381.3	513.22	364.86	298.28	303.25	511.09	360.43	236.62	512.34	295.24	226.5	500.08	362.83	314.5	520.36	347.18	125.76	504.73	349.01	140.26	417.14	272.59	75.287	456.57	280.73	41.825	429.61	283.25	48.921	494.54	452.13	37.323	534.32	478.77	40.384	412.34	546.12	56.928	452.72	386.51	716.14	125.67	456.57	633.16	146.9	385.73	620.88	137.4	464.45	723.67	134.98	387.24	528.46	139.54	315.54	333.66	121.06	380.82	273.29	123.46	311.02	260.96	134.26	381.19	344.2	116.5	340.27	117.1	133.26	368.39	128.23	221.41	278.5	68.762	178.51	289.13	44.042	210.96	283.51	41.586	149.87	468.19	39.532	103.85	486.11	50.367	224.01	553.08	58.954	171.75	367.06	1580.1	335.51	279.04	1296.2	331.71
1208	5.0292	540.19	1284.6	337.77	426.55	1531.3	497.74	413.64	1545.2	158.8	412.32	1851	338.7	489.26	1016.5	465.5	502.92	1023.8	214.28	293.36	1050.5	370.65	299.55	1053	279.53	398.25	941.86	521.53	407.02	950.56	137.25	402.22	1106.2	500.24	415.21	1106	165.68	281.16	1014.6	335.54	427.18	718.87	528.97	469.41	638.08	481.95	403.04	632.76	512.48	489.83	724.18	498.9	386.57	537.69	494.29	381.3	513.23	364.86	298.29	303.26	511.09	360.44	236.62	512.34	295.25	226.5	500.08	362.84	314.5	520.36	347.18	125.76	504.73	349.02	140.27	417.14	272.59	75.289	456.57	280.73	41.826	429.61	283.25	48.924	494.54	452.13	37.322	534.32	478.77	40.383	412.34	546.12	56.923	452.72	386.52	716.14	125.67	456.57	633.16	146.9	385.74	620.88	137.4	464.46	723.67	134.98	387.25	528.46	139.54	315.55	333.67	121.06	380.82	273.29	123.46	311.02	260.97	134.26	381.19	344.2	116.5	340.27	117.1	133.26	368.39	128.23	221.41	278.5	68.762	178.51	289.13	44.043	210.96	283.51	41.588	149.87	468.19	39.532	103.85	486.11	50.367	224.01	553.08	58.953	171.75	367.07	1580.1	335.52	279.05	1296.2	331.71
1209	5.0333	540.19	1284.6	337.77	426.55	1531.3	497.75	413.63	1545.2	158.81	412.34	1851	338.7	489.27	1016.5	465.51	502.93	1023.8	214.28	293.37	1050.5	370.65	299.56	1053	279.53	398.26	941.86	521.53	407.03	950.56	137.25	402.23	1106.2	500.24	415.22	1106	165.68	281.17	1014.7	335.54	427.19	718.88	528.97	469.41	638.08	481.95	403.05	632.76	512.49	489.84	724.18	498.9	386.58	537.69	494.29	381.31	513.23	364.86	298.29	303.26	511.09	360.44	236.63	512.34	295.25	226.5	500.08	362.85	314.51	520.36	347.18	125.76	504.73	349.02	140.27	417.14	272.59	75.292	456.57	280.73	41.828	429.61	283.25	48.926	494.54	452.13	37.321	534.32	478.77	40.381	412.34	546.12	56.919	452.72	386.53	716.14	125.67	456.58	633.16	146.9	385.74	620.88	137.4	464.47	723.67	134.99	387.25	528.46	139.54	315.55	333.67	121.06	380.83	273.29	123.46	311.03	260.97	134.26	381.2	344.2	116.5	340.27	117.11	133.26	368.39	128.23	221.41	278.5	68.762	178.51	289.13	44.044	210.96	283.51	41.589	149.87	468.19	39.532	103.85	486.11	50.366	224.01	553.08	58.952	171.75	367.08	1580.1	335.53	279.06	1296.2	331.71
